<?xml version="1.0" standalone="no"?>
<!DOCTYPE svg PUBLIC "-//W3C//DTD SVG 20010904//EN"
 "http://www.w3.org/TR/2001/REC-SVG-20010904/DTD/svg10.dtd">
<svg version="1.0" xmlns="http://www.w3.org/2000/svg"
 width="64.000000pt" height="71.000000pt" viewBox="0 0 64.000000 71.000000"
 preserveAspectRatio="xMidYMid meet">

<g transform="translate(0.000000,71.000000) scale(0.100000,-0.100000)"
fill="currentColor" stroke="none">
<path d="M267 670 c-74 -23 -136 -105 -137 -178 0 -44 25 -101 62 -139 l30
-31 -33 -18 c-60 -30 -104 -71 -132 -123 -28 -50 -39 -112 -23 -121 10 -6 18
8 41 72 20 56 81 123 138 149 64 29 160 26 225 -7 61 -30 116 -96 134 -158 6
-23 17 -47 24 -55 20 -22 28 8 15 57 -19 67 -70 134 -134 171 l-58 34 30 31
c62 64 76 142 39 216 -41 79 -142 126 -221 100z m133 -52 c53 -37 73 -71 74
-127 2 -117 -138 -194 -234 -128 -54 36 -74 71 -74 127 0 84 68 150 154 150
32 0 57 -7 80 -22z"/>
</g>
</svg>
