<?xml version="1.0" standalone="no"?>
<!DOCTYPE svg PUBLIC "-//W3C//DTD SVG 20010904//EN"
 "http://www.w3.org/TR/2001/REC-SVG-20010904/DTD/svg10.dtd">
<svg version="1.0" xmlns="http://www.w3.org/2000/svg"
 width="72.000000pt" height="75.000000pt" viewBox="0 0 72.000000 75.000000"
 preserveAspectRatio="xMidYMid meet">

<g transform="translate(0.000000,75.000000) scale(0.100000,-0.100000)"
fill="currentColor" stroke="none">
<path d="M5 721 c-10 -18 4 -31 35 -31 27 0 29 -3 44 -72 9 -40 27 -133 41
-206 14 -74 27 -138 30 -143 4 -5 14 -9 23 -9 14 -1 14 -2 -3 -12 -76 -44 -49
-159 37 -158 37 1 59 14 76 47 19 35 14 63 -17 94 l-29 29 118 0 119 0 -24
-25 c-34 -33 -34 -87 0 -120 34 -35 78 -33 117 5 25 26 29 36 24 63 -3 18 -17
42 -32 55 -17 15 -20 22 -10 22 8 0 17 8 20 18 7 24 66 336 66 350 0 9 -70 12
-257 14 l-257 3 -12 40 c-10 38 -12 40 -56 43 -26 2 -49 -2 -53 -7z m582 -148
c-3 -16 -15 -83 -28 -150 l-23 -123 -172 0 c-156 0 -173 2 -178 18 -2 9 -14
71 -26 137 -12 66 -23 126 -25 133 -4 9 46 12 227 12 l231 0 -6 -27z m-343
-374 c20 -30 3 -68 -31 -69 -16 0 -43 28 -43 45 0 18 28 45 45 45 8 0 21 -10
29 -21z m294 9 c24 -24 8 -78 -24 -78 -17 0 -44 28 -44 45 0 17 27 45 44 45 6
0 17 -5 24 -12z"/>
</g>
</svg>
