<svg viewBox="0 0 119 24" fill="none" xmlns="http://www.w3.org/2000/svg">
<path fill="currentColor" d="M0.321023 18V0.545454H4.53977V14.5739H11.8011V18H0.321023ZM20.0959 18.2472C18.7209 18.2472 17.5391 17.9659 16.5504 17.4034C15.5675 16.8352 14.8089 16.0455 14.2749 15.0341C13.7464 14.017 13.4822 12.8381 13.4822 11.4972C13.4822 10.1506 13.7464 8.97159 14.2749 7.96023C14.8089 6.94318 15.5675 6.15341 16.5504 5.59091C17.5391 5.02273 18.7209 4.73864 20.0959 4.73864C21.4709 4.73864 22.6499 5.02273 23.6328 5.59091C24.6214 6.15341 25.38 6.94318 25.9084 7.96023C26.4425 8.97159 26.7095 10.1506 26.7095 11.4972C26.7095 12.8381 26.4425 14.017 25.9084 15.0341C25.38 16.0455 24.6214 16.8352 23.6328 17.4034C22.6499 17.9659 21.4709 18.2472 20.0959 18.2472ZM20.1214 15.1023C20.6214 15.1023 21.0447 14.9489 21.3913 14.642C21.7379 14.3352 22.0021 13.9091 22.1839 13.3636C22.3714 12.8182 22.4652 12.1875 22.4652 11.4716C22.4652 10.7443 22.3714 10.108 22.1839 9.5625C22.0021 9.01705 21.7379 8.59091 21.3913 8.28409C21.0447 7.97727 20.6214 7.82386 20.1214 7.82386C19.6044 7.82386 19.1669 7.97727 18.8089 8.28409C18.4567 8.59091 18.1868 9.01705 17.9993 9.5625C17.8175 10.108 17.7266 10.7443 17.7266 11.4716C17.7266 12.1875 17.8175 12.8182 17.9993 13.3636C18.1868 13.9091 18.4567 14.3352 18.8089 14.642C19.1669 14.9489 19.6044 15.1023 20.1214 15.1023ZM34.9467 23.1818C33.7024 23.1818 32.6371 23.0085 31.7507 22.6619C30.8643 22.3153 30.1683 21.8409 29.6626 21.2386C29.157 20.6364 28.853 19.9545 28.7507 19.1932L32.6967 18.9716C32.7706 19.2386 32.907 19.4716 33.1058 19.6705C33.3104 19.8693 33.5746 20.0227 33.8984 20.1307C34.228 20.2386 34.6143 20.2926 35.0575 20.2926C35.7564 20.2926 36.3331 20.1222 36.7876 19.7812C37.2479 19.446 37.478 18.858 37.478 18.017V15.7159H37.3331C37.1683 16.1193 36.9183 16.4801 36.5831 16.7983C36.2479 17.1165 35.8303 17.3665 35.3303 17.5483C34.8359 17.7301 34.2678 17.821 33.6257 17.821C32.6712 17.821 31.7962 17.5994 31.0007 17.1562C30.2109 16.7074 29.5774 16.0142 29.1001 15.0767C28.6286 14.1335 28.3928 12.9205 28.3928 11.4375C28.3928 9.90909 28.6371 8.65057 29.1257 7.66193C29.6143 6.66761 30.2536 5.93182 31.0433 5.45454C31.8388 4.97727 32.6939 4.73864 33.6087 4.73864C34.2962 4.73864 34.8842 4.85795 35.3729 5.09659C35.8672 5.32955 36.2734 5.63068 36.5916 6C36.9098 6.36932 37.1513 6.75284 37.3161 7.15057H37.4354V4.90909H41.5859V18.0511C41.5859 19.1591 41.3075 20.0938 40.7507 20.8551C40.1939 21.6165 39.4155 22.1932 38.4155 22.5852C37.4155 22.983 36.2592 23.1818 34.9467 23.1818ZM35.0746 14.7869C35.5803 14.7869 36.0121 14.6534 36.37 14.3864C36.728 14.1193 37.0036 13.7358 37.1967 13.2358C37.3899 12.7358 37.4865 12.1364 37.4865 11.4375C37.4865 10.7273 37.3899 10.1165 37.1967 9.60511C37.0092 9.08807 36.7337 8.69034 36.37 8.41193C36.0121 8.13352 35.5803 7.99432 35.0746 7.99432C34.5575 7.99432 34.12 8.13636 33.7621 8.42045C33.4041 8.70455 33.1314 9.10511 32.9439 9.62216C32.7621 10.1335 32.6712 10.7386 32.6712 11.4375C32.6712 12.1364 32.7649 12.7358 32.9524 13.2358C33.1399 13.7358 33.4098 14.1193 33.7621 14.3864C34.12 14.6534 34.5575 14.7869 35.0746 14.7869ZM50.3537 18.2472C48.9787 18.2472 47.7969 17.9659 46.8082 17.4034C45.8253 16.8352 45.0668 16.0455 44.5327 15.0341C44.0043 14.017 43.7401 12.8381 43.7401 11.4972C43.7401 10.1506 44.0043 8.97159 44.5327 7.96023C45.0668 6.94318 45.8253 6.15341 46.8082 5.59091C47.7969 5.02273 48.9787 4.73864 50.3537 4.73864C51.7287 4.73864 52.9077 5.02273 53.8906 5.59091C54.8793 6.15341 55.6378 6.94318 56.1662 7.96023C56.7003 8.97159 56.9673 10.1506 56.9673 11.4972C56.9673 12.8381 56.7003 14.017 56.1662 15.0341C55.6378 16.0455 54.8793 16.8352 53.8906 17.4034C52.9077 17.9659 51.7287 18.2472 50.3537 18.2472ZM50.3793 15.1023C50.8793 15.1023 51.3026 14.9489 51.6491 14.642C51.9957 14.3352 52.2599 13.9091 52.4418 13.3636C52.6293 12.8182 52.723 12.1875 52.723 11.4716C52.723 10.7443 52.6293 10.108 52.4418 9.5625C52.2599 9.01705 51.9957 8.59091 51.6491 8.28409C51.3026 7.97727 50.8793 7.82386 50.3793 7.82386C49.8622 7.82386 49.4247 7.97727 49.0668 8.28409C48.7145 8.59091 48.4446 9.01705 48.2571 9.5625C48.0753 10.108 47.9844 10.7443 47.9844 11.4716C47.9844 12.1875 48.0753 12.8182 48.2571 13.3636C48.4446 13.9091 48.7145 14.3352 49.0668 14.642C49.4247 14.9489 49.8622 15.1023 50.3793 15.1023ZM64.2585 18V0.545454H68.4773V7.55114H75.3551V0.545454H79.5653V18H75.3551V10.9858H68.4773V18H64.2585ZM88.331 18.2472C86.9616 18.2472 85.7798 17.9773 84.7855 17.4375C83.7969 16.892 83.0355 16.1165 82.5014 15.1108C81.973 14.0994 81.7088 12.8977 81.7088 11.5057C81.7088 10.1534 81.9759 8.97159 82.5099 7.96023C83.044 6.94318 83.7969 6.15341 84.7685 5.59091C85.7401 5.02273 86.8849 4.73864 88.2031 4.73864C89.1349 4.73864 89.9872 4.88352 90.7599 5.17329C91.5327 5.46307 92.2003 5.89205 92.7628 6.46023C93.3253 7.02841 93.7628 7.73011 94.0753 8.56534C94.3878 9.39489 94.544 10.3466 94.544 11.4205V12.4602H83.1662V10.0398H90.6662C90.6605 9.59659 90.5554 9.2017 90.3509 8.85511C90.1463 8.50852 89.8651 8.23864 89.5071 8.04545C89.1548 7.84659 88.7486 7.74716 88.2884 7.74716C87.8224 7.74716 87.4048 7.85227 87.0355 8.0625C86.6662 8.26705 86.3736 8.5483 86.1577 8.90625C85.9418 9.25852 85.8281 9.65909 85.8168 10.108V12.571C85.8168 13.1051 85.9219 13.5739 86.1321 13.9773C86.3423 14.375 86.6406 14.6847 87.027 14.9062C87.4134 15.1278 87.8736 15.2386 88.4077 15.2386C88.777 15.2386 89.1122 15.1875 89.4134 15.0852C89.7145 14.983 89.973 14.8324 90.1889 14.6335C90.4048 14.4347 90.5668 14.1903 90.6747 13.9006L94.5014 14.0114C94.3423 14.8693 93.9929 15.6165 93.4531 16.2528C92.919 16.8835 92.2173 17.375 91.348 17.7273C90.4787 18.0739 89.473 18.2472 88.331 18.2472ZM96.6726 18V4.90909H100.721V7.29545H100.857C101.096 6.43182 101.485 5.78977 102.025 5.36932C102.565 4.94318 103.192 4.73011 103.908 4.73011C104.102 4.73011 104.3 4.74432 104.505 4.77273C104.71 4.79545 104.9 4.83239 105.076 4.88352V8.50568C104.877 8.4375 104.616 8.38352 104.292 8.34375C103.974 8.30398 103.69 8.28409 103.44 8.28409C102.945 8.28409 102.499 8.39489 102.102 8.61648C101.71 8.83239 101.4 9.13636 101.173 9.52841C100.951 9.91477 100.84 10.3693 100.84 10.892V18H96.6726ZM112.214 18.2472C110.844 18.2472 109.663 17.9773 108.668 17.4375C107.68 16.892 106.918 16.1165 106.384 15.1108C105.856 14.0994 105.592 12.8977 105.592 11.5057C105.592 10.1534 105.859 8.97159 106.393 7.96023C106.927 6.94318 107.68 6.15341 108.651 5.59091C109.623 5.02273 110.768 4.73864 112.086 4.73864C113.018 4.73864 113.87 4.88352 114.643 5.17329C115.415 5.46307 116.083 5.89205 116.646 6.46023C117.208 7.02841 117.646 7.73011 117.958 8.56534C118.271 9.39489 118.427 10.3466 118.427 11.4205V12.4602H107.049V10.0398H114.549C114.543 9.59659 114.438 9.2017 114.234 8.85511C114.029 8.50852 113.748 8.23864 113.39 8.04545C113.038 7.84659 112.631 7.74716 112.171 7.74716C111.705 7.74716 111.288 7.85227 110.918 8.0625C110.549 8.26705 110.256 8.5483 110.04 8.90625C109.825 9.25852 109.711 9.65909 109.7 10.108V12.571C109.7 13.1051 109.805 13.5739 110.015 13.9773C110.225 14.375 110.523 14.6847 110.91 14.9062C111.296 15.1278 111.756 15.2386 112.29 15.2386C112.66 15.2386 112.995 15.1875 113.296 15.0852C113.597 14.983 113.856 14.8324 114.072 14.6335C114.288 14.4347 114.45 14.1903 114.558 13.9006L118.384 14.0114C118.225 14.8693 117.876 15.6165 117.336 16.2528C116.802 16.8835 116.1 17.375 115.231 17.7273C114.362 18.0739 113.356 18.2472 112.214 18.2472Z"/>
</svg>
